<svg width="24" height="24" viewBox="0 0 24 24" fill="none" xmlns="http://www.w3.org/2000/svg">
  <path d="M17 7C17 8.65685 15.6569 10 14 10C12.3431 10 11 8.65685 11 7C11 5.34315 12.3431 4 14 4C15.6569 4 17 5.34315 17 7Z" fill="#B47F6B"/>
  <path d="M10 13C10 14.6569 8.65685 16 7 16C5.34315 16 4 14.6569 4 13C4 11.3431 5.34315 10 7 10C8.65685 10 10 11.3431 10 13Z" fill="#B47F6B"/>
  <path d="M20 13C20 14.6569 18.6569 16 17 16C15.3431 16 14 14.6569 14 13C14 11.3431 15.3431 10 17 10C18.6569 10 20 11.3431 20 13Z" fill="#B47F6B"/>
  <path d="M14 19C11.7909 19 10 17.2091 10 15H18C18 17.2091 16.2091 19 14 19Z" fill="#B47F6B"/>
  <path d="M7 19C4.79086 19 3 17.2091 3 15H11C11 17.2091 9.20914 19 7 19Z" fill="#B47F6B"/>
  <path d="M21 15H13C13 17.2091 14.7909 19 17 19C19.2091 19 21 17.2091 21 15Z" fill="#B47F6B"/>
</svg> 