<svg width="24" height="24" viewBox="0 0 24 24" fill="none" xmlns="http://www.w3.org/2000/svg">
  <path d="M15.17 2C14.5119 2.00014 13.8662 2.17419 13.3 2.5C12.7224 2.17667 12.069 2.00349 11.405 2.00349C10.741 2.00349 10.0876 2.17667 9.51 2.5C8.94385 2.17419 8.29815 2.00014 7.64 2C6.37 2 5.19 2.58 4.5 3.61C3.94 4.46 3.78 5.59 4.03 6.74C4.34 8.12 5.08 9.88 6.36 11.81C7.13 12.99 7.97 13.91 8.58 14.5L10.06 16L9.34 18.1C9.2 18.52 9.22 18.94 9.27 19.33C9.2318 19.7074 9.25078 20.0878 9.32348 20.4598C9.39619 20.8319 9.52185 21.1903 9.69603 21.5217C9.87022 21.8531 10.091 22.1528 10.3491 22.4089C10.6072 22.665 10.8985 22.8742 11.2127 23.0274C11.527 23.1806 11.8595 23.2758 12.2 23.3095C12.5404 23.3433 12.8842 23.3152 13.2145 23.2264C13.5447 23.1376 13.8562 22.9894 14.136 22.7882C14.4158 22.587 14.6598 22.336 14.856 22.047L16 20.31L17.144 22.047C17.3384 22.3351 17.5803 22.5856 17.8576 22.7869C18.1349 22.9883 18.4439 23.1372 18.7714 23.2273C19.099 23.3173 19.4402 23.3473 19.7787 23.3159C20.1172 23.2845 20.448 23.192 20.7614 23.0417C21.0749 22.8914 21.3659 22.6855 21.6244 22.4326C21.883 22.1797 22.0948 21.8834 22.2507 21.5555C22.4066 21.2276 22.5044 20.873 22.539 20.5046C22.5736 20.1363 22.5445 19.7647 22.453 19.408C22.3615 19.0513 22.2095 18.7143 22.004 18.413L21.284 16.313L22.764 14.813C22.9667 14.6089 23.1311 14.3717 23.2493 14.1127C23.3674 13.8537 23.4376 13.5771 23.4567 13.2951C23.4758 13.0132 23.4436 12.7303 23.3616 12.46C23.2797 12.1897 23.1492 11.9371 22.9767 11.7133C22.8042 11.4895 22.5929 11.2988 22.354 11.1504C22.115 11.002 21.8527 10.8985 21.5801 10.8447C21.3075 10.7909 21.0287 10.7878 20.7547 10.8354C20.4807 10.8831 20.2158 10.9808 19.973 11.124L19 11.724V8C19 6.74 17.96 5.68 16.74 5.68C16.5245 5.68093 16.3107 5.71661 16.107 5.783C15.9625 5.27889 15.6601 4.8362 15.2453 4.51224C14.8306 4.18828 14.3247 4.00159 13.803 3.983C13.2812 3.96441 12.7652 4.11379 12.3289 4.40981C11.8926 4.70584 11.5586 5.13005 11.377 5.625C11.2619 5.09323 10.9943 4.61015 10.6097 4.23719C10.2252 3.86422 9.74103 3.61982 9.22 3.539C8.69897 3.45818 8.1669 3.5466 7.6961 3.79441C7.2253 4.04222 6.84192 4.43632 6.6 4.92C5.64 3.83 4.05 3.67 2.82 4.5C1.61 5.34 1.25 7 2.03 8.21C2.71 9.3 3.76 10.31 5.04 11.39C3.52 8.88 2.63 6.5 3.23 5.46C3.32 5.3 3.5 5.03 3.92 5.03C4.31 5.03 4.71 5.22 5.02 5.54C5.24 5.76 5.58 5.76 5.8 5.54C6.02 5.32 6.02 4.98 5.8 4.76C5.28 4.24 4.63 3.94 3.92 3.94C3.21 3.94 2.56 4.24 2.04 4.76C1.1 5.74 1.3 7.32 2.03 8.42C1.01 7.5 0.42 6.5 0.06 5.5C-0.33 4.37 -0.14 3.18 0.64 2.17C1.43 1.17 2.73 0.66 3.92 0.94C4.93 1.19 5.83 1.9 6.24 2.88C6.36 3.2 6.73 3.36 7.05 3.24C7.37 3.12 7.53 2.75 7.41 2.43C7.2 1.86 6.87 1.35 6.46 0.94C6.7 0.79 7.16 0.55 7.64 0.55C9.32 0.55 10.17 2.07 10.17 2.07C10.29 2.27 10.48 2.4 10.71 2.43C10.74 2.44 10.78 2.44 10.81 2.44C11 2.44 11.19 2.35 11.31 2.2L11.33 2.17C11.99 1.33 12.95 0.89 13.95 1.01C14.95 1.14 15.77 1.84 16.19 2.78C16.31 3.1 16.68 3.26 17 3.14C17.32 3.02 17.48 2.65 17.36 2.33C17.04 1.5 16.37 0.83 15.5 0.5C15.39 0.5 15.28 0.5 15.17 0.5C15.17 0.5 15.17 2 15.17 2ZM15.83 7.30189H15.83C16.3 7.30189 16.67 7.62189 16.67 8.00189V18.0019H15V8.00189C15 7.62189 15.37 7.30189 15.83 7.30189Z" fill="#B47F6B"/>
</svg> 